<svg width="20" height="20" viewBox="0 0 20 20" fill="none" xmlns="http://www.w3.org/2000/svg">
<path d="M10.1372 18.5243C14.9073 18.5243 18.7743 14.6573 18.7743 9.88717C18.7743 5.11699 14.9073 1.25 10.1372 1.25C5.36699 1.25 1.5 5.11699 1.5 9.88717C1.5 14.6573 5.36699 18.5243 10.1372 18.5243Z" fill="black"/>
<path d="M10.1372 18.5243C14.9073 18.5243 18.7743 14.6573 18.7743 9.88717C18.7743 5.11699 14.9073 1.25 10.1372 1.25C5.36699 1.25 1.5 5.11699 1.5 9.88717C1.5 14.6573 5.36699 18.5243 10.1372 18.5243Z" fill="url(#paint0_linear_4325_49270)"/>
<path fill-rule="evenodd" clip-rule="evenodd" d="M10.1433 14.2468C12.5493 14.2468 14.4997 12.2964 14.4997 9.89035C14.4997 7.48434 12.5493 5.53389 10.1433 5.53389C7.73727 5.53389 5.78682 7.48434 5.78682 9.89035C5.78682 12.2964 7.73727 14.2468 10.1433 14.2468ZM15.8256 9.89035C15.8256 13.0286 13.2816 15.5727 10.1433 15.5727C7.00501 15.5727 4.46094 13.0286 4.46094 9.89035C4.46094 6.75208 7.00501 4.20801 10.1433 4.20801C13.2816 4.20801 15.8256 6.75208 15.8256 9.89035Z" fill="url(#paint1_linear_4325_49270)"/>
<defs>
<linearGradient id="paint0_linear_4325_49270" x1="10.1372" y1="1.25" x2="10.1372" y2="18.5243" gradientUnits="userSpaceOnUse">
<stop stop-color="#3F3F3F"/>
<stop offset="1" stop-color="#303030" stop-opacity="0"/>
</linearGradient>
<linearGradient id="paint1_linear_4325_49270" x1="10.1433" y1="4.20801" x2="10.1433" y2="15.5727" gradientUnits="userSpaceOnUse">
<stop stop-color="#00EF26"/>
<stop offset="1" stop-color="#FFC700"/>
</linearGradient>
</defs>
</svg>
