<svg width="20" height="18" viewBox="0 0 20 18" fill="none" xmlns="http://www.w3.org/2000/svg">
<path d="M2.47012 17.5075H17.5301C19.0701 17.5075 20.0301 15.8375 19.2601 14.5075L11.7301 1.4975C10.9601 0.1675 9.04012 0.1675 8.27012 1.4975L0.740121 14.5075C-0.0298788 15.8375 0.930121 17.5075 2.47012 17.5075ZM10.0001 10.5075C9.45012 10.5075 9.00012 10.0575 9.00012 9.5075V7.5075C9.00012 6.9575 9.45012 6.5075 10.0001 6.5075C10.5501 6.5075 11.0001 6.9575 11.0001 7.5075V9.5075C11.0001 10.0575 10.5501 10.5075 10.0001 10.5075ZM11.0001 14.5075H9.00012V12.5075H11.0001V14.5075Z" fill="#FF9D00"/>
</svg>
